<?xml version="1.0" encoding="UTF-8" standalone="no"?>
<svg
   version="1.1"
   width="600px"
   height="600px"
   style="shape-rendering:geometricPrecision;text-rendering:geometricPrecision;image-rendering:optimizeQuality;fill-rule:evenodd;clip-rule:evenodd"
   id="svg6"
   sodipodi:docname="design.svg"
   inkscape:version="1.3.2 (091e20e, 2023-11-25)"
   xmlns:inkscape="http://www.inkscape.org/namespaces/inkscape"
   xmlns:sodipodi="http://sodipodi.sourceforge.net/DTD/sodipodi-0.dtd"
   xmlns="http://www.w3.org/2000/svg"
   xmlns:svg="http://www.w3.org/2000/svg"
   xmlns:inkstitch="http://inkstitch.org/namespace">
  <sodipodi:namedview
     id="namedview6"
     pagecolor="#ffffff"
     bordercolor="#000000"
     borderopacity="0.25"
     inkscape:showpageshadow="2"
     inkscape:pageopacity="0.0"
     inkscape:pagecheckerboard="0"
     inkscape:deskcolor="#d1d1d1"
     inkscape:zoom="0.39333333"
     inkscape:cx="298.72881"
     inkscape:cy="300"
     inkscape:window-width="1920"
     inkscape:window-height="1027"
     inkscape:window-x="0"
     inkscape:window-y="25"
     inkscape:window-maximized="1"
     inkscape:current-layer="svg6" />
  <metadata
     id="metadata6">
    <inkstitch:min_stitch_len_mm>0</inkstitch:min_stitch_len_mm>
    <inkstitch:collapse_len_mm>3</inkstitch:collapse_len_mm>
    <inkstitch:inkstitch_svg_version>1</inkstitch:inkstitch_svg_version>
  </metadata>
  <defs
     id="defs6" />
  <g
     id="g1">
    <path
       style="opacity:0.077"
       fill="#0c0c0c"
       d="M 296.5,219.5 C 323.52,219.77 345.686,230.104 363,250.5C 385.274,283.759 384.941,316.759 362,349.5C 335.12,379.411 302.953,386.911 265.5,372C 227.76,350.816 213.594,318.982 223,276.5C 235.782,242.201 260.282,223.201 296.5,219.5 Z M 356.5,289.5 C 358.497,293.118 359.497,297.118 359.5,301.5C 357.85,327.642 344.85,345.475 320.5,355C 310.575,356.539 300.575,357.706 290.5,358.5C 278.38,356.273 267.713,351.106 258.5,343C 262.494,344.368 265.66,343.202 268,339.5C 270.545,343.059 273.879,345.392 278,346.5C 279.895,346.385 281.562,345.718 283,344.5C 284.635,341.368 286.468,338.368 288.5,335.5C 292.208,339.005 296.541,340.172 301.5,339C 304.037,336.094 306.204,332.927 308,329.5C 311.184,331.758 314.517,333.758 318,335.5C 319.626,334.711 321.126,333.711 322.5,332.5C 323.747,329.671 325.247,327.005 327,324.5C 329.814,325.966 332.647,327.466 335.5,329C 336.833,329.667 338.167,329.667 339.5,329C 343.015,324.818 345.682,320.151 347.5,315C 345.125,310.96 341.792,307.96 337.5,306C 339.959,302.25 342.292,298.417 344.5,294.5C 347.298,293.031 350.298,292.198 353.5,292C 354.942,291.623 355.942,290.79 356.5,289.5 Z M 344.5,261.5 C 347.582,263.683 349.582,266.683 350.5,270.5C 348.971,272.188 347.137,273.521 345,274.5C 344.027,276.392 343.36,278.392 343,280.5C 335.123,278.694 333.457,274.36 338,267.5C 340.063,265.266 342.229,263.266 344.5,261.5 Z"
       id="path1" />
  </g>
  <g
     id="g2">
    <path
       style="opacity:0.998"
       fill="#e6e6e6"
       d="M 289.5,222.5 C 328.71,220.843 356.21,237.843 372,273.5C 382.179,309.628 372.679,339.461 343.5,363C 305.169,385.027 270.669,380.194 240,348.5C 217.045,316.405 216.712,284.071 239,251.5C 252.408,235.717 269.242,226.05 289.5,222.5 Z M 356.5,289.5 C 355.942,290.79 354.942,291.623 353.5,292C 350.298,292.198 347.298,293.031 344.5,294.5C 342.292,298.417 339.959,302.25 337.5,306C 341.792,307.96 345.125,310.96 347.5,315C 345.682,320.151 343.015,324.818 339.5,329C 338.167,329.667 336.833,329.667 335.5,329C 332.647,327.466 329.814,325.966 327,324.5C 325.247,327.005 323.747,329.671 322.5,332.5C 321.126,333.711 319.626,334.711 318,335.5C 314.517,333.758 311.184,331.758 308,329.5C 306.204,332.927 304.037,336.094 301.5,339C 296.541,340.172 292.208,339.005 288.5,335.5C 286.468,338.368 284.635,341.368 283,344.5C 281.562,345.718 279.895,346.385 278,346.5C 273.879,345.392 270.545,343.059 268,339.5C 265.66,343.202 262.494,344.368 258.5,343C 267.713,351.106 278.38,356.273 290.5,358.5C 300.575,357.706 310.575,356.539 320.5,355C 344.85,345.475 357.85,327.642 359.5,301.5C 359.497,297.118 358.497,293.118 356.5,289.5 Z M 344.5,261.5 C 342.229,263.266 340.063,265.266 338,267.5C 333.457,274.36 335.123,278.694 343,280.5C 343.36,278.392 344.027,276.392 345,274.5C 347.137,273.521 348.971,272.188 350.5,270.5C 349.582,266.683 347.582,263.683 344.5,261.5 Z"
       id="path2" />
  </g>
  <g
     id="g3">
    <path
       style="opacity:0.847"
       fill="#050505"
       d="M 287.5,236.5 C 326.093,233.85 350.927,250.85 362,287.5C 365.419,313.599 356.919,334.766 336.5,351C 309.77,367.266 283.77,366.266 258.5,348C 234.15,323.577 229.983,296.077 246,265.5C 256.35,250.75 270.183,241.084 287.5,236.5 Z M 356.5,289.5 C 355.942,290.79 354.942,291.623 353.5,292C 350.298,292.198 347.298,293.031 344.5,294.5C 342.292,298.417 339.959,302.25 337.5,306C 341.792,307.96 345.125,310.96 347.5,315C 345.682,320.151 343.015,324.818 339.5,329C 338.167,329.667 336.833,329.667 335.5,329C 332.647,327.466 329.814,325.966 327,324.5C 325.247,327.005 323.747,329.671 322.5,332.5C 321.126,333.711 319.626,334.711 318,335.5C 314.517,333.758 311.184,331.758 308,329.5C 306.204,332.927 304.037,336.094 301.5,339C 296.541,340.172 292.208,339.005 288.5,335.5C 286.468,338.368 284.635,341.368 283,344.5C 281.562,345.718 279.895,346.385 278,346.5C 273.879,345.392 270.545,343.059 268,339.5C 265.66,343.202 262.494,344.368 258.5,343C 267.713,351.106 278.38,356.273 290.5,358.5C 300.575,357.706 310.575,356.539 320.5,355C 344.85,345.475 357.85,327.642 359.5,301.5C 359.497,297.118 358.497,293.118 356.5,289.5 Z M 344.5,261.5 C 342.229,263.266 340.063,265.266 338,267.5C 333.457,274.36 335.123,278.694 343,280.5C 343.36,278.392 344.027,276.392 345,274.5C 347.137,273.521 348.971,272.188 350.5,270.5C 349.582,266.683 347.582,263.683 344.5,261.5 Z"
       id="path3" />
  </g>
  <g
     id="g4">
    <path
       style="opacity:0.999"
       fill="#e7e7e7"
       d="M 326.5,288.5 C 331.26,290.047 335.594,292.38 339.5,295.5C 337.62,299.428 335.62,303.261 333.5,307C 337.344,309.422 341.01,312.089 344.5,315C 342.507,318.651 340.507,322.317 338.5,326C 334.256,324.979 330.256,323.146 326.5,320.5C 323.669,324.159 320.836,327.826 318,331.5C 314.08,329.902 310.414,327.902 307,325.5C 304.344,329.47 301.677,333.47 299,337.5C 295.25,335.041 291.417,332.708 287.5,330.5C 284.846,334.463 282.18,338.463 279.5,342.5C 275.367,340.198 271.367,337.698 267.5,335C 269.507,331.317 271.507,327.651 273.5,324C 273.241,322.739 272.574,321.739 271.5,321C 268.13,319.654 265.13,317.821 262.5,315.5C 264.837,311.491 267.171,307.491 269.5,303.5C 273.113,305.89 276.946,307.89 281,309.5C 283.98,306.011 286.813,302.344 289.5,298.5C 293.256,301.217 297.256,303.05 301.5,304C 303.637,300.364 305.971,296.864 308.5,293.5C 312.428,295.38 316.261,297.38 320,299.5C 323.185,296.466 325.352,292.8 326.5,288.5 Z"
       id="path4" />
  </g>
  <g
     id="g5">
    <path
       style="opacity:1"
       fill="#e6e6e6"
       d="M 268.5,269.5 C 280.35,268.174 284.85,273.174 282,284.5C 275.555,291.408 269.555,291.074 264,283.5C 262.454,277.794 263.954,273.127 268.5,269.5 Z"
       id="path5" />
  </g>
  <g
     id="g6">
    <path
       style="opacity:1"
       fill="#e5e5e5"
       d="M 308.5,258.5 C 320.936,258.889 324.603,264.555 319.5,275.5C 313.27,280.034 307.77,279.367 303,273.5C 301.087,266.97 302.92,261.97 308.5,258.5 Z"
       id="path6" />
  </g>
</svg>
